<?xml version="1.0" encoding="UTF-8" standalone="no"?>
<!-- Generator: Adobe Illustrator 12.0.0, SVG Export Plug-In . SVG Version: 6.00 Build 51448)  -->
<svg
   xmlns:dc="http://purl.org/dc/elements/1.1/"
   xmlns:cc="http://web.resource.org/cc/"
   xmlns:rdf="http://www.w3.org/1999/02/22-rdf-syntax-ns#"
   xmlns:svg="http://www.w3.org/2000/svg"
   xmlns="http://www.w3.org/2000/svg"
   xmlns:sodipodi="http://sodipodi.sourceforge.net/DTD/sodipodi-0.dtd"
   xmlns:inkscape="http://www.inkscape.org/namespaces/inkscape"
   version="1.0"
   id="Layer_1"
   width="913"
   height="590.5"
   viewBox="0 0 9.13 5.904"
   overflow="visible"
   enable-background="new 0 0 9.13 5.904"
   xml:space="preserve"
   sodipodi:version="0.32"
   inkscape:version="0.45.1"
   sodipodi:docname="metro.svg"
   inkscape:output_extension="org.inkscape.output.svg.inkscape"
   sodipodi:docbase="C:\Users\Virgile"><metadata
   id="metadata2224"><rdf:RDF><cc:Work
       rdf:about=""><dc:format>image/svg+xml</dc:format><dc:type
         rdf:resource="http://purl.org/dc/dcmitype/StillImage" /></cc:Work></rdf:RDF></metadata><defs
   id="defs2222" /><sodipodi:namedview
   inkscape:window-height="1000"
   inkscape:window-width="1400"
   inkscape:pageshadow="2"
   inkscape:pageopacity="0.0"
   guidetolerance="10.0"
   gridtolerance="10.0"
   objecttolerance="10.0"
   borderopacity="1.0"
   bordercolor="#666666"
   pagecolor="#ffffff"
   id="base"
   inkscape:zoom="0.29857056"
   inkscape:cx="1895.1025"
   inkscape:cy="1203.853"
   inkscape:window-x="-8"
   inkscape:window-y="-8"
   inkscape:current-layer="Layer_1" />





<g
   id="g2226"
   transform="translate(-9.9627838e-3,4.6229378e-3)"><path
     id="path2211"
     d="M 9.13,0.681 C 9.13,0.304 8.82,0 8.439,0 L 0.689,0 C 0.31,0 0,0.304 0,0.681 L 0,5.221 C 0,5.598 0.31,5.905 0.689,5.905 L 8.439,5.905 C 8.82,5.905 9.129,5.598 9.129,5.221 L 9.129,0.681"
     style="fill:#0b7cc1" /><path
     id="path2213"
     d="M 5.51,0.488 L 8.43,0.488 C 8.54,0.488 8.64,0.581 8.64,0.694 L 8.64,4.757 C 8.64,4.871 8.54,4.964 8.43,4.964 L 5.63,4.964 L 5.63,0.723 C 5.63,0.624 5.55,0.488 5.51,0.488"
     style="fill:#ffffff" /><path
     id="path2215"
     d="M 1.88,2.437 L 1.88,4.965 L 0.71,4.965 C 0.6,4.965 0.5,4.871 0.5,4.758 L 0.5,0.759 C 0.5,0.647 0.58,0.545 0.689,0.545 C 0.769,0.545 0.839,0.585 0.87,0.64 L 1.88,2.437"
     style="fill:#ffffff" /><path
     id="path2217"
     d="M 4.4,3.869 L 3.24,3.869 C 3.019,3.869 2.859,3.827 2.73,3.61 L 1.03,0.576 C 1.02,0.544 0.99,0.508 0.95,0.486 L 2.09,0.486 C 2.31,0.486 2.47,0.528 2.6,0.745 L 4.26,3.724 C 4.31,3.821 4.359,3.869 4.4,3.869"
     style="fill:#ffffff" /><path
     id="path2219"
     d="M 3.9,2.701 L 4.42,3.626 C 4.49,3.755 4.66,3.954 4.83,3.647 L 5.47,2.514 L 5.47,0.884 C 5.47,0.446 5.13,0.492 4.96,0.799 L 3.9,2.701"
     style="fill:#ffffff" /></g></svg>